<svg id='Job_Seeker_24' width='24' height='24' viewBox='0 0 24 24' xmlns='http://www.w3.org/2000/svg' xmlns:xlink='http://www.w3.org/1999/xlink'><rect width='24' height='24' stroke='none' fill='#000000' opacity='0'/>


<g transform="matrix(0.31 0 0 0.31 12 12)" >
<g style="" >
<g transform="matrix(1 0 0 1 -13.5 -1)" >
<linearGradient id="SVGID_oymGXHqpgSRl29oh6kdwda_1" gradientUnits="userSpaceOnUse" gradientTransform="matrix(1 0 0 1 0 0)" x1="18.5" y1="26.915" x2="18.5" y2="32.287">
<stop offset="0%" style="stop-color:rgb(109,199,255);stop-opacity: 1"/>
<stop offset="100%" style="stop-color:rgb(230,171,255);stop-opacity: 1"/>
</linearGradient>
<path style="stroke: none; stroke-width: 1; stroke-dasharray: none; stroke-linecap: butt; stroke-dashoffset: 0; stroke-linejoin: miter; stroke-miterlimit: 4; fill: url(#SVGID_oymGXHqpgSRl29oh6kdwda_1); fill-rule: nonzero; opacity: 1;" transform=" translate(-18.5, -31)" d="M 18.5 35 L 18.5 35 C 17.119 35 16 33.881 16 32.5 L 16 29.5 C 16 28.119 17.119 27 18.5 27 L 18.5 27 C 19.881 27 21 28.119 21 29.5 L 21 32.5 C 21 33.881 19.881 35 18.5 35 z" stroke-linecap="round" />
</g>
<g transform="matrix(1 0 0 1 0 6)" >
<linearGradient id="SVGID_oymGXHqpgSRl29oh6kdwdb_2" gradientUnits="userSpaceOnUse" gradientTransform="matrix(1 0 0 1 -32 -38)" x1="32" y1="33.234" x2="32" y2="40.492">
<stop offset="0%" style="stop-color:rgb(109,199,255);stop-opacity: 1"/>
<stop offset="100%" style="stop-color:rgb(230,171,255);stop-opacity: 1"/>
</linearGradient>
<circle style="stroke: none; stroke-width: 1; stroke-dasharray: none; stroke-linecap: butt; stroke-dashoffset: 0; stroke-linejoin: miter; stroke-miterlimit: 4; fill: url(#SVGID_oymGXHqpgSRl29oh6kdwdb_2); fill-rule: nonzero; opacity: 1;" cx="0" cy="0" r="3" />
</g>
<g transform="matrix(1 0 0 1 13.5 -1)" >
<linearGradient id="SVGID_oymGXHqpgSRl29oh6kdwdc_3" gradientUnits="userSpaceOnUse" gradientTransform="matrix(1 0 0 1 0 0)" x1="45.5" y1="26.915" x2="45.5" y2="32.287">
<stop offset="0%" style="stop-color:rgb(109,199,255);stop-opacity: 1"/>
<stop offset="100%" style="stop-color:rgb(230,171,255);stop-opacity: 1"/>
</linearGradient>
<path style="stroke: none; stroke-width: 1; stroke-dasharray: none; stroke-linecap: butt; stroke-dashoffset: 0; stroke-linejoin: miter; stroke-miterlimit: 4; fill: url(#SVGID_oymGXHqpgSRl29oh6kdwdc_3); fill-rule: nonzero; opacity: 1;" transform=" translate(-45.5, -31)" d="M 45.5 35 L 45.5 35 C 44.119 35 43 33.881 43 32.5 L 43 29.5 C 43 28.119 44.119 27 45.5 27 L 45.5 27 C 46.881 27 48 28.119 48 29.5 L 48 32.5 C 48 33.881 46.881 35 45.5 35 z" stroke-linecap="round" />
</g>
<g transform="matrix(1 0 0 1 0 12)" >
<linearGradient id="SVGID_oymGXHqpgSRl29oh6kdwdd_4" gradientUnits="userSpaceOnUse" gradientTransform="matrix(1 0 0 1 0 0)" x1="32" y1="6.66" x2="32" y2="56.303">
<stop offset="0%" style="stop-color:rgb(26,109,255);stop-opacity: 1"/>
<stop offset="100%" style="stop-color:rgb(200,34,255);stop-opacity: 1"/>
</linearGradient>
<path style="stroke: none; stroke-width: 1; stroke-dasharray: none; stroke-linecap: butt; stroke-dashoffset: 0; stroke-linejoin: miter; stroke-miterlimit: 4; fill: url(#SVGID_oymGXHqpgSRl29oh6kdwdd_4); fill-rule: nonzero; opacity: 1;" transform=" translate(-32, -44)" d="M 40 38 C 40 33.589 36.411 30 32 30 C 27.589 30 24 33.589 24 38 C 24 42.072 27.06 45.436 31 45.931 L 31 48 L 28 48 L 28 55 C 28 56.653999999999996 29.346 58 31 58 L 33 58 C 34.653999999999996 58 36 56.653999999999996 36 55 L 36 48 L 33 48 L 33 45.931 C 36.94 45.436 40 42.072 40 38 z M 33 56 L 31 56 C 30.449 56 30 55.552 30 55 L 30 54 L 34 54 L 34 55 C 34 55.552 33.551 56 33 56 z M 34 52 L 30 52 L 30 50 L 34 50 L 34 52 z M 26 38 C 26 34.691 28.691 32 32 32 C 35.309 32 38 34.691 38 38 C 38 41.309 35.309 44 32 44 C 28.691000000000003 44 26 41.309 26 38 z" stroke-linecap="round" />
</g>
<g transform="matrix(1 0 0 1 0 -4)" >
<linearGradient id="SVGID_oymGXHqpgSRl29oh6kdwde_5" gradientUnits="userSpaceOnUse" gradientTransform="matrix(1 0 0 1 0 0)" x1="32" y1="6.66" x2="32" y2="56.303">
<stop offset="0%" style="stop-color:rgb(26,109,255);stop-opacity: 1"/>
<stop offset="100%" style="stop-color:rgb(200,34,255);stop-opacity: 1"/>
</linearGradient>
<path style="stroke: none; stroke-width: 1; stroke-dasharray: none; stroke-linecap: butt; stroke-dashoffset: 0; stroke-linejoin: miter; stroke-miterlimit: 4; fill: url(#SVGID_oymGXHqpgSRl29oh6kdwde_5); fill-rule: nonzero; opacity: 1;" transform=" translate(-32, -28)" d="M 50 14.999 L 44 14.999 L 44 13.999 C 44 12.896 43.103 11.999 42 11.999 L 41 11.999 L 41 10.999 C 41 8.242 38.757 5.9990000000000006 36 5.9990000000000006 L 28 5.9990000000000006 C 25.243 5.9990000000000006 23 8.242 23 10.999 L 23 11.999 L 22 11.999 C 20.897 11.999 20 12.896 20 13.999 L 20 14.999 L 14 14.999 C 11.243 14.999 9 17.242 9 19.999000000000002 L 9 28.999000000000002 C 9 30.301000000000002 9.838 31.401000000000003 11 31.815 L 11 47 C 11 48.653999999999996 12.346 50 14 50 L 23.666 50 L 26 50 L 26 48 L 24.999 48 L 14.001 48 C 13.449 48 13.001 47.551 13.001 47 L 13.001 45.816 C 13.315 45.928000000000004 13.649 46 14.001 46 L 24 46 L 24 44 L 14.001 44 C 13.449 44 13.001 43.551 13.001 43 L 13.001 42 L 13.001 32 L 15 32 L 15 32.5 C 15 34.43 16.57 36 18.5 36 C 20.43 36 22 34.43 22 32.5 L 22 32 L 25 32 L 25 30 L 22 30 L 22 29.5 C 22 27.57 20.43 26 18.5 26 C 16.57 26 15 27.57 15 29.5 L 15 30 L 12.001 30 C 11.449 30 11.001 29.551 11.001 29 L 11.001 20 C 11.001 18.346 12.347 17 14.001 17 L 50.001 17 C 51.655 17 53.001 18.346 53.001 20 L 53.001 29 C 53.001 29.551 52.553 30 52.001 30 L 49.001 30 C 49.001 29.997 49 29.994 49 29.99 L 49 29.5 C 49 27.57 47.43 26 45.5 26 C 43.57 26 42 27.57 42 29.5 L 42 30 L 39 30 L 39 32 L 42 32 L 42 32.5 C 42 34.43 43.57 36 45.5 36 C 47.43 36 49 34.43 49 32.5 L 49 32.01 C 49 32.007 49.001 32.004 49.001 31.999999999999996 L 51.001 31.999999999999996 L 50.998999999999995 43 C 50.998999999999995 43.551 50.550999999999995 44 49.998999999999995 44 L 40 44 L 40 46 L 49.999 46 C 50.351 46 50.685 45.928 50.999 45.816 L 50.999 47 C 50.999 47.551 50.551 48 49.999 48 L 39.001 48 L 38 48 L 38 50 L 40.334 50 L 50 50 C 51.653999999999996 50 53 48.653999999999996 53 47 L 53 31.815 C 54.162 31.401 55 30.301000000000002 55 28.999000000000002 L 55 19.999000000000002 C 55 17.242 52.757 14.999 50 14.999 z M 17 29.5 C 17 28.673000000000002 17.673000000000002 28 18.5 28 C 19.326999999999998 28 20 28.673000000000002 20 29.5 L 20 32.5 C 20 33.327 19.326999999999998 34 18.5 34 C 17.673000000000002 34 17 33.327 17 32.5 L 17 29.5 z M 26.001 15 L 22.001 15 L 22.001 14 L 26.001 14 L 26.001 15 z M 36.001 14 L 36.001 15 L 28.000999999999998 15 L 28.000999999999998 14 C 28.000999999999998 12.897 27.104 12 26.000999999999998 12 L 25.000999999999998 12 L 25.000999999999998 11 C 25.000999999999998 9.346 26.346999999999998 8 28.000999999999998 8 L 36.001 8 C 37.655 8 39.001 9.346 39.001 11 L 39.001 12 L 38.001 12 C 36.898 12 36.001 12.897 36.001 14 z M 42.001 15 L 38.001 15 L 38.001 14 L 42.001 14 L 42.001 15 z M 47 32.5 C 47 33.327 46.327 34 45.5 34 C 44.673 34 44 33.327 44 32.5 L 44 29.5 C 44 28.673000000000002 44.673 28 45.5 28 C 46.327 28 47 28.673000000000002 47 29.5 L 47 32.5 z" stroke-linecap="round" />
</g>
</g>
</g>
</svg>